<mxfile host="app.diagrams.net" modified="2024-06-19T07:56:40.441Z" agent="Mozilla/5.0 (Windows NT 10.0; Win64; x64) AppleWebKit/537.36 (KHTML, like Gecko) Chrome/125.0.0.0 Safari/537.36 Edg/125.0.0.0" etag="62_UV8TzseCqQH5GUqII" version="24.5.5" type="github">
  <diagram name="Page-1" id="EcqNfrim0UmWAMcfIdFD">
    <mxGraphModel dx="832" dy="481" grid="1" gridSize="10" guides="1" tooltips="1" connect="1" arrows="1" fold="1" page="1" pageScale="1" pageWidth="850" pageHeight="1100" math="0" shadow="0">
      <root>
        <mxCell id="0" />
        <mxCell id="1" parent="0" />
        <mxCell id="iZzpUM9VxHZeIErT4uhQ-1" value="&lt;strong&gt;CPU&lt;/strong&gt;:&amp;nbsp;Intel Core i7 (8th Gen) or AMD Ryzen 7&lt;br&gt;&lt;div&gt;&lt;strong style=&quot;background-color: initial;&quot;&gt;RAM&lt;/strong&gt;&lt;span style=&quot;background-color: initial;&quot;&gt;:&amp;nbsp;&lt;/span&gt;&lt;span style=&quot;background-color: initial;&quot;&gt;16 GB&lt;/span&gt;&lt;/div&gt;&lt;div&gt;&lt;div&gt;&lt;div&gt;HD:512 GB SSD&lt;/div&gt;&lt;div&gt;&lt;br&gt;&lt;/div&gt;&lt;/div&gt;&lt;/div&gt;" style="verticalAlign=top;align=left;shape=cube;size=10;direction=south;fontStyle=0;html=1;boundedLbl=1;spacingLeft=5;whiteSpace=wrap;" vertex="1" parent="1">
          <mxGeometry x="130" y="190" width="200" height="210" as="geometry" />
        </mxCell>
        <mxCell id="iZzpUM9VxHZeIErT4uhQ-2" value="&lt;div&gt;&lt;br&gt;&lt;/div&gt;Manager&lt;br&gt;PC" style="verticalAlign=top;align=center;shape=cube;size=10;direction=south;html=1;boundedLbl=1;spacingLeft=5;whiteSpace=wrap;" vertex="1" parent="iZzpUM9VxHZeIErT4uhQ-1">
          <mxGeometry width="100" height="80" relative="1" as="geometry">
            <mxPoint x="40" y="100" as="offset" />
          </mxGeometry>
        </mxCell>
        <mxCell id="iZzpUM9VxHZeIErT4uhQ-3" value="&lt;strong&gt;CPU&lt;/strong&gt;: Dual Intel Xeon Silver 4214R (or equivalent)&lt;br&gt;&lt;strong&gt;RAM&lt;/strong&gt;: 64 GB ECC RAM&lt;br&gt;HD:1 TB NVMe SSD for the database" style="verticalAlign=top;align=left;shape=cube;size=10;direction=south;fontStyle=0;html=1;boundedLbl=1;spacingLeft=5;whiteSpace=wrap;" vertex="1" parent="1">
          <mxGeometry x="620" y="260" width="180" height="290" as="geometry" />
        </mxCell>
        <mxCell id="iZzpUM9VxHZeIErT4uhQ-4" value="&lt;br&gt;DataBase&lt;br&gt;Server" style="verticalAlign=top;align=center;shape=cube;size=10;direction=south;html=1;boundedLbl=1;spacingLeft=5;whiteSpace=wrap;" vertex="1" parent="iZzpUM9VxHZeIErT4uhQ-3">
          <mxGeometry width="100" height="80" relative="1" as="geometry">
            <mxPoint x="40" y="120" as="offset" />
          </mxGeometry>
        </mxCell>
        <mxCell id="iZzpUM9VxHZeIErT4uhQ-5" value="&lt;strong&gt;CPU&lt;/strong&gt;:&amp;nbsp;Intel Core i5 (8th Gen) or AMD Ryzen 5&lt;br&gt;&lt;strong&gt;RAM&lt;/strong&gt;:8 GB&lt;br&gt;HD:256 GB SSD" style="verticalAlign=top;align=left;shape=cube;size=10;direction=south;fontStyle=0;html=1;boundedLbl=1;spacingLeft=5;whiteSpace=wrap;" vertex="1" parent="1">
          <mxGeometry x="130" y="430" width="200" height="220" as="geometry" />
        </mxCell>
        <mxCell id="iZzpUM9VxHZeIErT4uhQ-6" value="&lt;br&gt;Employee&lt;br&gt;PC" style="verticalAlign=top;align=center;shape=cube;size=10;direction=south;html=1;boundedLbl=1;spacingLeft=5;whiteSpace=wrap;" vertex="1" parent="iZzpUM9VxHZeIErT4uhQ-5">
          <mxGeometry width="100" height="80" relative="1" as="geometry">
            <mxPoint x="40" y="100" as="offset" />
          </mxGeometry>
        </mxCell>
        <mxCell id="iZzpUM9VxHZeIErT4uhQ-7" style="edgeStyle=orthogonalEdgeStyle;rounded=0;orthogonalLoop=1;jettySize=auto;html=1;entryX=0;entryY=0;entryDx=150;entryDy=180;entryPerimeter=0;" edge="1" parent="1" source="iZzpUM9VxHZeIErT4uhQ-1" target="iZzpUM9VxHZeIErT4uhQ-3">
          <mxGeometry relative="1" as="geometry" />
        </mxCell>
        <mxCell id="iZzpUM9VxHZeIErT4uhQ-8" style="edgeStyle=orthogonalEdgeStyle;rounded=0;orthogonalLoop=1;jettySize=auto;html=1;entryX=0.628;entryY=1.006;entryDx=0;entryDy=0;entryPerimeter=0;" edge="1" parent="1" source="iZzpUM9VxHZeIErT4uhQ-5" target="iZzpUM9VxHZeIErT4uhQ-3">
          <mxGeometry relative="1" as="geometry" />
        </mxCell>
        <mxCell id="iZzpUM9VxHZeIErT4uhQ-9" value="1" style="text;html=1;align=center;verticalAlign=middle;resizable=0;points=[];autosize=1;strokeColor=none;fillColor=none;" vertex="1" parent="1">
          <mxGeometry x="335" y="268" width="30" height="30" as="geometry" />
        </mxCell>
        <mxCell id="iZzpUM9VxHZeIErT4uhQ-10" value="1" style="text;html=1;align=center;verticalAlign=middle;resizable=0;points=[];autosize=1;strokeColor=none;fillColor=none;" vertex="1" parent="1">
          <mxGeometry x="325" y="518" width="30" height="30" as="geometry" />
        </mxCell>
        <mxCell id="iZzpUM9VxHZeIErT4uhQ-11" value="1" style="text;html=1;align=center;verticalAlign=middle;resizable=0;points=[];autosize=1;strokeColor=none;fillColor=none;" vertex="1" parent="1">
          <mxGeometry x="585" y="378" width="30" height="30" as="geometry" />
        </mxCell>
        <mxCell id="iZzpUM9VxHZeIErT4uhQ-12" value="1" style="text;html=1;align=center;verticalAlign=middle;resizable=0;points=[];autosize=1;strokeColor=none;fillColor=none;" vertex="1" parent="1">
          <mxGeometry x="585" y="418" width="30" height="30" as="geometry" />
        </mxCell>
      </root>
    </mxGraphModel>
  </diagram>
</mxfile>
